<?xml version="1.0" standalone="no"?>
<!DOCTYPE svg PUBLIC "-//W3C//DTD SVG 20010904//EN"
 "http://www.w3.org/TR/2001/REC-SVG-20010904/DTD/svg10.dtd">
<svg version="1.0" xmlns="http://www.w3.org/2000/svg"
 width="225.000000pt" height="225.000000pt" viewBox="0 0 225.000000 225.000000"
 preserveAspectRatio="xMidYMid meet">

<g transform="translate(0.000000,225.000000) scale(0.100000,-0.100000)"
fill="#000000" stroke="none">
<path d="M985 1826 c-262 -61 -454 -241 -536 -506 -30 -96 -32 -270 -5 -370
69 -250 267 -448 514 -511 105 -27 262 -26 362 2 276 76 476 303 521 590 21
133 1 262 -61 394 -88 189 -226 313 -425 381 -98 33 -273 42 -370 20z m-42
-434 c4 -71 49 -311 74 -396 3 -11 26 66 55 180 27 109 54 217 60 239 10 39
12 35 68 -183 50 -196 70 -259 70 -225 0 5 16 102 35 215 27 155 33 212 25
232 l-10 26 120 0 119 0 -29 -47 c-32 -52 -53 -146 -110 -480 -29 -168 -30
-184 -16 -217 l15 -36 -118 0 -117 0 -1 63 c-1 56 -27 225 -37 235 -4 4 -29
-103 -44 -188 -5 -25 -5 -60 -1 -78 l6 -32 -125 0 -125 0 21 23 c12 13 22 36
22 53 0 73 -145 634 -175 678 l-21 31 117 -3 116 -3 6 -87z"/>
</g>
</svg>
